<svg width="300" height="300" viewBox="0 0 300 300" fill="none" xmlns="http://www.w3.org/2000/svg">
<path d="M91.95 41.895C102.18 34.1477 114.668 29.9692 127.5 30C131.1 30 133.965 31.875 135.63 33.165C137.49 34.635 139.23 36.51 140.79 38.385C141.896 39.7285 142.501 41.4148 142.5 43.155V97.5H126.225C124.456 92.4959 120.974 88.2783 116.396 85.5928C111.818 82.9072 106.438 81.9265 101.207 82.824C95.9758 83.7216 91.2303 86.4395 87.8092 90.4976C84.3881 94.5556 82.5118 99.6924 82.5118 105C82.5118 110.308 84.3881 115.444 87.8092 119.502C91.2303 123.56 95.9758 126.278 101.207 127.176C106.438 128.073 111.818 127.093 116.396 124.407C120.974 121.722 124.456 117.504 126.225 112.5H142.5V253.725C142.501 254.835 142.255 255.932 141.78 256.936C141.305 257.94 140.614 258.826 139.755 259.53C132.825 265.2 123.555 270 112.5 270C94.71 270 81.465 261.03 72.9 250.305C66.7464 242.663 62.5316 233.647 60.615 224.025C54.7872 222.471 49.3838 219.626 44.805 215.7C36.525 208.605 30 197.1 30 180C30 171.645 30.555 164.1 31.8 157.5H78.75C88.29 157.5 96.15 164.625 97.35 173.835C92.3617 175.64 88.1717 179.15 85.5198 183.744C82.8679 188.339 81.9247 193.723 82.8567 198.945C83.7887 204.168 86.536 208.893 90.6135 212.286C94.6909 215.68 99.8364 217.523 105.141 217.492C110.446 217.46 115.569 215.555 119.606 212.113C123.642 208.671 126.333 203.913 127.202 198.68C128.072 193.447 127.064 188.075 124.358 183.512C121.651 178.95 117.42 175.491 112.41 173.745C111.778 165.251 107.957 157.309 101.714 151.514C95.4712 145.719 87.268 142.499 78.75 142.5H36.615C38.91 138.03 41.985 134.25 45.99 131.565C47.0031 130.894 48.0662 130.303 49.17 129.795C44.91 117.315 46.02 102.705 50.13 91.23C52.755 83.85 56.925 76.875 62.655 72.225C66.435 69.15 70.935 67.125 75.855 66.735C78.015 56.49 84.075 48.015 91.95 41.895ZM157.5 217.5H168.75C177.701 217.5 186.285 213.944 192.615 207.615C198.944 201.286 202.5 192.701 202.5 183.75V156.225C207.504 154.456 211.722 150.974 214.407 146.396C217.093 141.818 218.073 136.438 217.176 131.207C216.278 125.976 213.56 121.23 209.502 117.809C205.444 114.388 200.308 112.512 195 112.512C189.692 112.512 184.556 114.388 180.498 117.809C176.44 121.23 173.722 125.976 172.824 131.207C171.927 136.438 172.907 141.818 175.593 146.396C178.278 150.974 182.496 154.456 187.5 156.225V183.75C187.5 194.1 179.1 202.5 168.75 202.5H157.5V43.155C157.499 41.4148 158.104 39.7285 159.21 38.385C160.755 36.51 162.51 34.635 164.37 33.165C166.02 31.875 168.885 30 172.5 30C185.332 29.9692 197.82 34.1477 208.05 41.895C215.925 48.015 222 56.49 224.145 66.735C229.065 67.11 233.565 69.15 237.345 72.225C243.075 76.875 247.245 83.85 249.87 91.23C253.98 102.705 255.09 117.33 250.83 129.78C251.91 130.29 252.975 130.89 254.01 131.58C258.135 134.325 261.27 138.255 263.58 142.89C268.125 151.965 270 164.625 270 180C270 197.115 263.475 208.605 255.195 215.7C250.616 219.626 245.213 222.471 239.385 224.025C237.885 232.395 233.685 242.085 227.1 250.305C218.55 261.03 205.29 270 187.5 270C176.46 270 167.175 265.2 160.26 259.53C159.398 258.827 158.704 257.942 158.227 256.938C157.749 255.934 157.501 254.837 157.5 253.725V217.5ZM105 97.5C103.011 97.5 101.103 98.2902 99.6967 99.6967C98.2902 101.103 97.5 103.011 97.5 105C97.5 106.989 98.2902 108.897 99.6967 110.303C101.103 111.71 103.011 112.5 105 112.5C106.989 112.5 108.897 111.71 110.303 110.303C111.71 108.897 112.5 106.989 112.5 105C112.5 103.011 111.71 101.103 110.303 99.6967C108.897 98.2902 106.989 97.5 105 97.5ZM105 187.5C103.011 187.5 101.103 188.29 99.6967 189.697C98.2902 191.103 97.5 193.011 97.5 195C97.5 196.989 98.2902 198.897 99.6967 200.303C101.103 201.71 103.011 202.5 105 202.5C106.989 202.5 108.897 201.71 110.303 200.303C111.71 198.897 112.5 196.989 112.5 195C112.5 193.011 111.71 191.103 110.303 189.697C108.897 188.29 106.989 187.5 105 187.5ZM195 142.5C196.989 142.5 198.897 141.71 200.303 140.303C201.71 138.897 202.5 136.989 202.5 135C202.5 133.011 201.71 131.103 200.303 129.697C198.897 128.29 196.989 127.5 195 127.5C193.011 127.5 191.103 128.29 189.697 129.697C188.29 131.103 187.5 133.011 187.5 135C187.5 136.989 188.29 138.897 189.697 140.303C191.103 141.71 193.011 142.5 195 142.5Z" fill="#0DCAF0"/>
</svg>
